SplineFontDB: 3.2
FontName: Untitled1
FullName: Untitled1
FamilyName: Untitled1
Weight: Regular
Copyright: Copyright (c) 2025, Bastien
UComments: "2025-8-10: Created with FontForge (http://fontforge.org)"
Version: 001.000
ItalicAngle: 0
UnderlinePosition: -100
UnderlineWidth: 50
Ascent: 800
Descent: 200
InvalidEm: 0
LayerCount: 2
Layer: 0 0 "Arri+AOgA-re" 1
Layer: 1 0 "Avant" 0
XUID: [1021 613 318438993 6195586]
OS2Version: 0
OS2_WeightWidthSlopeOnly: 0
OS2_UseTypoMetrics: 1
CreationTime: 1754849754
ModificationTime: 1754849754
OS2TypoAscent: 0
OS2TypoAOffset: 1
OS2TypoDescent: 0
OS2TypoDOffset: 1
OS2TypoLinegap: 0
OS2WinAscent: 0
OS2WinAOffset: 1
OS2WinDescent: 0
OS2WinDOffset: 1
HheadAscent: 0
HheadAOffset: 1
HheadDescent: 0
HheadDOffset: 1
OS2Vendor: 'PfEd'
DEI: 91125
Encoding: ISO8859-1
UnicodeInterp: none
NameList: AGL For New Fonts
DisplaySize: -48
AntiAlias: 1
FitToEm: 0
WinInfo: 60 15 12
BeginChars: 256 95

StartChar: exclam
Encoding: 33 33 1
Width: 322
Flags: HW
LayerCount: 2
Fore
SplineSet
65.931640625 722 m 1
 266.77734375 722 l 1
 256.734375 238.848632812 l 1
 75.974609375 238.848632812 l 1
 65.931640625 722 l 1
271.798828125 106.321289062 m 0
 271.798828125 78.3544921875 260.6875 51.5361328125 240.913085938 31.7626953125 c 0
 221.138671875 11.98828125 194.321289062 0.876953125 166.354492188 0.876953125 c 0
 138.387695312 0.876953125 111.569335938 11.98828125 91.794921875 31.7626953125 c 0
 72.021484375 51.5361328125 60.91015625 78.3544921875 60.91015625 106.321289062 c 0
 60.91015625 134.288085938 72.021484375 161.106445312 91.794921875 180.880859375 c 0
 111.569335938 200.654296875 138.387695312 211.765625 166.354492188 211.765625 c 0
 194.321289062 211.765625 221.138671875 200.654296875 240.913085938 180.880859375 c 0
 260.6875 161.106445312 271.798828125 134.288085938 271.798828125 106.321289062 c 0
EndSplineSet
EndChar

StartChar: quotedbl
Encoding: 34 34 2
Width: 408
Flags: HW
LayerCount: 2
Fore
SplineSet
16.6044921875 772.958007812 m 1
 207.25 772.958007812 l 1
 207.25 577.38671875 l 1
 16.6044921875 577.38671875 l 1
 16.6044921875 772.958007812 l 1
403.836914062 577.38671875 m 1
 213.19140625 577.38671875 l 1
 213.19140625 772.958007812 l 1
 403.836914062 772.958007812 l 1
 403.836914062 577.38671875 l 1
EndSplineSet
EndChar

StartChar: numbersign
Encoding: 35 35 3
Width: 753
Flags: HW
LayerCount: 2
Fore
SplineSet
42.216796875 361.438476562 m 1
 42.216796875 536.567382812 l 1
 731.41015625 536.567382812 l 1
 731.41015625 361.438476562 l 1
 42.216796875 361.438476562 l 1
42.216796875 93.5927734375 m 1
 42.216796875 268.72265625 l 1
 731.41015625 268.72265625 l 1
 731.41015625 93.5927734375 l 1
 42.216796875 93.5927734375 l 1
42.216796875 0.876953125 m 1
 232.494140625 722 l 1
 407.624023438 722 l 1
 217.345703125 0.876953125 l 1
 42.216796875 0.876953125 l 1
366.002929688 0.876953125 m 1
 556.280273438 722 l 1
 731.41015625 722 l 1
 541.131835938 0.876953125 l 1
 366.002929688 0.876953125 l 1
EndSplineSet
EndChar

StartChar: dollar
Encoding: 36 36 4
Width: 645
Flags: HW
LayerCount: 2
Fore
SplineSet
338.30859375 730.241210938 m 0
 440.55859375 730.241210938 536.557617188 681.025390625 596.245117188 598.004882812 c 1
 462.08984375 485.43359375 l 1
 435.840820312 528.694335938 388.91015625 555.112304688 338.30859375 555.112304688 c 0
 280.489257812 555.112304688 226.581054688 560.032226562 226.581054688 510.037109375 c 0
 226.581054688 480.138671875 253.469726562 471.708984375 285.208007812 464.962890625 c 2
 414.6015625 437.458984375 l 2
 545.830078125 409.564453125 637.662109375 344.91015625 637.662109375 216.959960938 c 0
 637.662109375 57.8017578125 501.388671875 -7.3642578125 325.087890625 -7.3642578125 c 0
 211.143554688 -7.3642578125 102.471679688 40.640625 25.734375 124.872070312 c 1
 159.890625 237.443359375 l 1
 203.307617188 192.891601562 262.879882812 167.764648438 325.087890625 167.764648438 c 0
 383.5390625 167.764648438 436.81640625 166.69921875 436.81640625 216.959960938 c 0
 436.81640625 247.920898438 410.780273438 259.228515625 378.188476562 266.15625 c 2
 248.795898438 293.66015625 l 2
 118.490234375 321.357421875 25.734375 383.438476562 25.734375 510.037109375 c 0
 25.734375 667.920898438 162.639648438 730.241210938 338.30859375 730.241210938 c 0
250.744140625 745.694335938 m 1
 425.873046875 745.694335938 l 1
 412.653320312 -22.8173828125 l 1
 237.5234375 -22.8173828125 l 1
 250.744140625 745.694335938 l 1
EndSplineSet
EndChar

StartChar: percent
Encoding: 37 37 5
Width: 845
Flags: HW
LayerCount: 2
Fore
SplineSet
95.28515625 0.876953125 m 1
 571.19140625 722 l 1
 772.037109375 722 l 1
 296.130859375 0.876953125 l 1
 95.28515625 0.876953125 l 1
195.708007812 730.241210938 m 1
 301.1875 730.241210938 368.766601562 665.502929688 368.766601562 560.77734375 c 0
 368.766601562 456.05078125 301.1875 391.3125 195.708007812 391.3125 c 0
 90.228515625 391.3125 22.650390625 456.05078125 22.650390625 560.77734375 c 0
 22.650390625 665.502929688 90.228515625 730.241210938 195.708007812 730.241210938 c 1
 195.708007812 555.112304688 l 1
 134.553710938 555.112304688 223.49609375 605.693359375 223.49609375 560.77734375 c 0
 223.49609375 515.861328125 134.553710938 566.442382812 195.708007812 566.442382812 c 0
 256.86328125 566.442382812 167.919921875 515.861328125 167.919921875 560.77734375 c 0
 167.919921875 605.693359375 256.86328125 555.112304688 195.708007812 555.112304688 c 1
 195.708007812 730.241210938 l 1
671.614257812 -7.3642578125 m 1
 566.134765625 -7.3642578125 498.556640625 57.3740234375 498.556640625 162.099609375 c 0
 498.556640625 266.826171875 566.134765625 331.564453125 671.614257812 331.564453125 c 0
 777.09375 331.564453125 844.671875 266.826171875 844.671875 162.099609375 c 0
 844.671875 57.3740234375 777.09375 -7.3642578125 671.614257812 -7.3642578125 c 1
 671.614257812 167.764648438 l 1
 732.768554688 167.764648438 643.826171875 117.18359375 643.826171875 162.099609375 c 0
 643.826171875 207.015625 732.768554688 156.434570312 671.614257812 156.434570312 c 0
 610.459960938 156.434570312 699.40234375 207.015625 699.40234375 162.099609375 c 0
 699.40234375 117.18359375 610.459960938 167.764648438 671.614257812 167.764648438 c 1
 671.614257812 -7.3642578125 l 1
EndSplineSet
EndChar

StartChar: ampersand
Encoding: 38 38 6
Width: 737
Flags: HW
LayerCount: 2
Fore
SplineSet
416.302734375 722 m 0
 524.583007812 722 618.5234375 647.237304688 642.826171875 541.71875 c 1
 508.670898438 429.147460938 l 1
 523.344726562 489.057617188 477.983398438 546.870117188 416.302734375 546.870117188 c 0
 385.138671875 546.870117188 372.59375 520.026367188 372.59375 485.43359375 c 0
 372.59375 386.712890625 558.837890625 52.7578125 642.826171875 0.876953125 c 1
 441.98046875 0.876953125 l 1
 357.9921875 52.7578125 171.748046875 386.712890625 171.748046875 485.43359375 c 0
 171.748046875 632.245117188 267.817382812 722 416.302734375 722 c 0
721.763671875 150.138671875 m 1
 635.762695312 50.1494140625 510.432617188 -7.3642578125 378.546875 -7.3642578125 c 0
 180.25390625 -7.3642578125 25.734375 63.0234375 25.734375 241.250976562 c 0
 25.734375 368.807617188 139.592773438 414.495117188 282.946289062 414.495117188 c 1
 282.946289062 265.634765625 l 1
 253.524414062 265.634765625 226.581054688 266.572265625 226.581054688 241.250976562 c 0
 226.581054688 172.163085938 298.065429688 167.764648438 378.546875 167.764648438 c 0
 469.57421875 167.764648438 555.185546875 211.018554688 609.192382812 284.293945312 c 1
 721.763671875 150.138671875 l 1
EndSplineSet
EndChar

StartChar: quotesingle
Encoding: 39 39 7
Width: 157
Flags: HW
LayerCount: 2
Fore
SplineSet
0 800 m 1
 195.944335938 800 l 1
 186.146484375 598.993164062 l 1
 9.7978515625 598.993164062 l 1
 0 800 l 1
EndSplineSet
EndChar

StartChar: parenleft
Encoding: 40 40 8
Width: 357
Flags: HW
LayerCount: 2
Fore
SplineSet
185.286132812 772.958007812 m 1
 351.521484375 772.958007812 l 1
 272.448242188 639.797851562 230.717773438 487.791015625 230.717773438 332.923828125 c 0
 230.717773438 178.055664062 272.448242188 26.048828125 351.521484375 -107.110351562 c 1
 185.286132812 -107.110351562 l 1
 90.978515625 20.216796875 40.072265625 174.473632812 40.072265625 332.923828125 c 0
 40.072265625 491.373046875 90.978515625 645.630859375 185.286132812 772.958007812 c 1
EndSplineSet
EndChar

StartChar: parenright
Encoding: 41 41 9
Width: 357
Flags: HW
LayerCount: 2
Fore
SplineSet
16.6044921875 772.958007812 m 1
 182.83984375 772.958007812 l 1
 277.147460938 645.630859375 328.053710938 491.373046875 328.053710938 332.923828125 c 0
 328.053710938 174.473632812 277.147460938 20.216796875 182.83984375 -107.110351562 c 1
 16.6044921875 -107.110351562 l 1
 95.677734375 26.048828125 137.409179688 178.055664062 137.409179688 332.923828125 c 0
 137.409179688 487.791015625 95.677734375 639.797851562 16.6044921875 772.958007812 c 1
EndSplineSet
EndChar

StartChar: asterisk
Encoding: 42 42 10
Width: 571
Flags: HW
LayerCount: 2
Fore
SplineSet
272.784179688 536.419921875 m 1
 74.5263671875 570.241210938 l 1
 134.474609375 754.740234375 l 1
 314.747070312 665.567382812 l 1
 272.784179688 536.419921875 l 1
348.696289062 561.084960938 m 1
 255.265625 382.98046875 l 1
 98.3203125 497.006835938 l 1
 238.834960938 640.90234375 l 1
 348.696289062 561.084960938 l 1
348.696289062 640.90234375 m 1
 489.2109375 497.006835938 l 1
 332.265625 382.98046875 l 1
 238.834960938 561.084960938 l 1
 348.696289062 640.90234375 l 1
272.784179688 665.567382812 m 1
 453.056640625 754.740234375 l 1
 513.004882812 570.241210938 l 1
 314.747070312 536.419921875 l 1
 272.784179688 665.567382812 l 1
225.868164062 600.993164062 m 1
 196.768554688 800 l 1
 390.762695312 800 l 1
 361.663085938 600.993164062 l 1
 225.868164062 600.993164062 l 1
EndSplineSet
EndChar

StartChar: plus
Encoding: 43 43 11
Width: 645
Flags: HW
LayerCount: 2
Fore
SplineSet
83.6826171875 201.756835938 m 1
 83.6826171875 376.88671875 l 1
 579.71484375 376.88671875 l 1
 579.71484375 201.756835938 l 1
 83.6826171875 201.756835938 l 1
231.275390625 41.3056640625 m 1
 231.275390625 537.337890625 l 1
 432.12109375 537.337890625 l 1
 432.12109375 41.3056640625 l 1
 231.275390625 41.3056640625 l 1
EndSplineSet
EndChar

StartChar: comma
Encoding: 44 44 12
Width: 247
Flags: HW
LayerCount: 2
Fore
SplineSet
28.966796875 103.89453125 m 1
 229.8125 103.89453125 l 1
 206.495117188 -102.140625 l 1
 25.734375 -102.140625 l 1
 28.966796875 103.89453125 l 1
EndSplineSet
EndChar

StartChar: hyphen
Encoding: 45 45 13
Width: 645
Flags: HW
LayerCount: 2
Fore
SplineSet
83.6826171875 201.756835938 m 1
 83.6826171875 376.88671875 l 1
 579.71484375 376.88671875 l 1
 579.71484375 201.756835938 l 1
 83.6826171875 201.756835938 l 1
EndSplineSet
EndChar

StartChar: period
Encoding: 46 46 14
Width: 269
Flags: HW
LayerCount: 2
Fore
SplineSet
244.241210938 98.080078125 m 0
 244.241210938 70.11328125 233.129882812 43.294921875 213.35546875 23.5205078125 c 0
 193.58203125 3.7470703125 166.763671875 -7.3642578125 138.796875 -7.3642578125 c 0
 110.830078125 -7.3642578125 84.01171875 3.7470703125 64.23828125 23.5205078125 c 0
 44.4638671875 43.294921875 33.3525390625 70.11328125 33.3525390625 98.080078125 c 0
 33.3525390625 126.046875 44.4638671875 152.865234375 64.23828125 172.638671875 c 0
 84.01171875 192.413085938 110.830078125 203.524414062 138.796875 203.524414062 c 0
 166.763671875 203.524414062 193.58203125 192.413085938 213.35546875 172.638671875 c 0
 233.129882812 152.865234375 244.241210938 126.046875 244.241210938 98.080078125 c 0
EndSplineSet
EndChar

StartChar: slash
Encoding: 47 47 15
Width: 446
Flags: HW
LayerCount: 2
Fore
SplineSet
241.1328125 730.241210938 m 1
 441.978515625 730.241210938 l 1
 218.338867188 -7.3642578125 l 1
 17.4931640625 -7.3642578125 l 1
 241.1328125 730.241210938 l 1
EndSplineSet
EndChar

StartChar: zero
Encoding: 48 48 16
Width: 592
Flags: HW
LayerCount: 2
Fore
SplineSet
304.141601562 730.241210938 m 1
 496.359375 730.241210938 582.547851562 571.59765625 582.547851562 361.438476562 c 0
 582.547851562 151.279296875 496.359375 -7.3642578125 304.141601562 -7.3642578125 c 0
 111.922851562 -7.3642578125 25.734375 151.279296875 25.734375 361.438476562 c 0
 25.734375 571.59765625 111.922851562 730.241210938 304.141601562 730.241210938 c 1
 304.141601562 555.112304688 l 1
 217.500976562 555.112304688 226.581054688 461.576171875 226.581054688 361.438476562 c 0
 226.581054688 261.30078125 217.500976562 167.764648438 304.141601562 167.764648438 c 0
 390.78125 167.764648438 381.701171875 261.30078125 381.701171875 361.438476562 c 0
 381.701171875 461.576171875 390.78125 555.112304688 304.141601562 555.112304688 c 1
 304.141601562 730.241210938 l 1
EndSplineSet
EndChar

StartChar: one
Encoding: 49 49 17
Width: 592
Flags: HW
LayerCount: 2
Fore
SplineSet
234.033203125 722 m 1
 434.87890625 722 l 1
 434.87890625 0.876953125 l 1
 234.033203125 0.876953125 l 1
 234.033203125 722 l 1
79.8271484375 176.006835938 m 1
 546.642578125 176.006835938 l 1
 546.642578125 0.876953125 l 1
 79.8271484375 0.876953125 l 1
 79.8271484375 176.006835938 l 1
79.8271484375 649.8828125 m 1
 234.033203125 722 l 1
 234.033203125 551.279296875 l 1
 79.8271484375 479.163085938 l 1
 79.8271484375 649.8828125 l 1
EndSplineSet
EndChar

StartChar: two
Encoding: 50 50 18
Width: 592
Flags: HW
LayerCount: 2
Fore
SplineSet
18.80859375 598.004882812 m 1
 78.544921875 681.029296875 174.579101562 730.241210938 276.860351562 730.241210938 c 0
 434.02734375 730.241210938 546.642578125 653.569335938 546.642578125 505.661132812 c 0
 546.642578125 420.665039062 493.495117188 348.1484375 428.92578125 292.204101562 c 0
 428.90234375 292.18359375 135.0234375 37.55859375 135 37.5380859375 c 1
 18.80859375 176.006835938 l 2
 18.83203125 176.02734375 312.7109375 430.65234375 312.734375 430.672851562 c 0
 334.34765625 449.399414062 345.796875 477.03515625 345.796875 505.661132812 c 0
 345.796875 543.756835938 317.161132812 563.869140625 276.860351562 563.869140625 c 0
 223.873046875 563.869140625 175.630859375 533.328125 152.963867188 485.43359375 c 1
 18.80859375 598.004882812 l 1
18.80859375 0.876953125 m 1
 18.80859375 176.006835938 l 1
 546.642578125 176.006835938 l 1
 546.642578125 0.876953125 l 1
 18.80859375 0.876953125 l 1
EndSplineSet
EndChar

StartChar: three
Encoding: 51 51 19
Width: 592
Flags: HW
LayerCount: 2
Fore
SplineSet
79.8359375 722 m 1
 566.075195312 722 l 1
 566.075195312 597.220703125 l 1
 403.952148438 429.946289062 l 1
 203.106445312 429.946289062 l 1
 353.53125 555.626953125 l 1
 79.8359375 555.626953125 l 1
 79.8359375 722 l 1
203.106445312 429.946289062 m 1
 403.952148438 429.946289062 l 2
 519.418945312 429.946289062 582.556640625 345.458007812 582.556640625 224.424804688 c 0
 582.556640625 64.759765625 451.225585938 -7.3642578125 276.869140625 -7.3642578125 c 0
 172.9140625 -7.3642578125 75.0400390625 41.6396484375 12.7578125 124.872070312 c 1
 146.9140625 237.443359375 l 1
 175.83203125 193.921875 224.616210938 167.764648438 276.869140625 167.764648438 c 0
 333.262695312 167.764648438 381.709960938 175.797851562 381.709960938 224.424804688 c 0
 381.709960938 264.407226562 347.7109375 281.084960938 303.529296875 281.084960938 c 2
 253.317382812 281.084960938 l 1
 203.106445312 429.946289062 l 1
EndSplineSet
EndChar

StartChar: four
Encoding: 52 52 20
Width: 592
Flags: HW
LayerCount: 2
Fore
SplineSet
276.466796875 722 m 1
 477.3125 722 l 1
 226.581054688 267.688476562 l 1
 25.734375 267.688476562 l 1
 276.466796875 722 l 1
25.734375 92.5595703125 m 1
 25.734375 267.688476562 l 1
 590.7890625 267.688476562 l 1
 590.7890625 92.5595703125 l 1
 25.734375 92.5595703125 l 1
309.81640625 354.583984375 m 1
 510.662109375 393.887695312 l 1
 510.662109375 0.876953125 l 1
 309.81640625 0.876953125 l 1
 309.81640625 354.583984375 l 1
EndSplineSet
EndChar

StartChar: five
Encoding: 53 53 21
Width: 592
Flags: HW
LayerCount: 2
Fore
SplineSet
61.6396484375 722 m 1
 507.243164062 722 l 1
 507.243164062 564.383789062 l 1
 61.6396484375 564.383789062 l 1
 61.6396484375 722 l 1
61.6396484375 722 m 1
 242.400390625 722 l 1
 222.9765625 289.321289062 l 1
 42.216796875 289.321289062 l 1
 61.6396484375 722 l 1
170.4375 289.321289062 m 1
 167.1953125 407.834960938 241.33203125 484.028320312 359.889648438 484.028320312 c 0
 501.3125 484.028320312 582.547851562 384.963867188 582.547851562 238.848632812 c 0
 582.547851562 73.44921875 451.874023438 -7.3642578125 273.826171875 -7.3642578125 c 0
 180.924804688 -7.3642578125 91.7744140625 29.28515625 25.734375 94.626953125 c 1
 146.473632812 195.940429688 l 1
 179.711914062 161.166992188 225.72265625 141.497070312 273.826171875 141.497070312 c 0
 338.001953125 141.497070312 381.701171875 176.86328125 381.701171875 238.848632812 c 0
 381.701171875 295.556640625 352.1640625 335.166992188 298.08203125 335.166992188 c 0
 266.43359375 335.166992188 237.442382812 317.470703125 222.9765625 289.321289062 c 1
 170.4375 289.321289062 l 1
EndSplineSet
EndChar

StartChar: six
Encoding: 54 54 22
Width: 592
Flags: HW
LayerCount: 2
Fore
SplineSet
558.51953125 638.734375 m 1
 437.780273438 537.419921875 l 1
 413.178710938 565.366210938 377.747070312 581.379882812 340.515625 581.379882812 c 0
 222.270507812 581.379882812 226.581054688 455.57421875 226.581054688 318.172851562 c 2
 226.581054688 224.423828125 l 2
 226.581054688 178.20703125 257.21484375 150.250976562 304.141601562 150.250976562 c 0
 354.6015625 150.250976562 389.943359375 176.365234375 389.943359375 224.423828125 c 0
 389.943359375 280.79296875 361.620117188 320.741210938 308.26171875 320.741210938 c 0
 254.904296875 320.741210938 226.581054688 280.79296875 226.581054688 224.423828125 c 1
 156.530273438 224.423828125 l 1
 156.530273438 354.447265625 245.938476562 469.602539062 370.0703125 469.602539062 c 0
 510.741210938 469.602539062 590.7890625 370.18359375 590.7890625 224.423828125 c 0
 590.7890625 69.7275390625 469.984375 -7.3642578125 304.141601562 -7.3642578125 c 0
 122.932617188 -7.3642578125 25.734375 127.249023438 25.734375 318.172851562 c 0
 25.734375 553.577148438 124.506835938 730.241210938 340.515625 730.241210938 c 0
 422.521484375 730.241210938 501.08203125 697.265625 558.51953125 638.734375 c 1
EndSplineSet
EndChar

StartChar: seven
Encoding: 55 55 23
Width: 592
Flags: HW
LayerCount: 2
Fore
SplineSet
25.734375 546.870117188 m 1
 25.734375 722 l 1
 582.547851562 722 l 1
 582.547851562 546.870117188 l 1
 25.734375 546.870117188 l 1
381.701171875 546.870117188 m 1
 582.547851562 546.870117188 l 1
 298.466796875 0.876953125 l 1
 97.6201171875 0.876953125 l 1
 381.701171875 546.870117188 l 1
EndSplineSet
EndChar

StartChar: eight
Encoding: 56 56 24
Width: 592
Flags: HW
LayerCount: 2
Fore
SplineSet
304.141601562 581.379882812 m 1
 304.141601562 730.241210938 l 1
 457.232421875 730.241210938 566.065429688 653.9453125 566.065429688 509.26953125 c 0
 566.065429688 373.750976562 452.919921875 314.569335938 304.141601562 314.569335938 c 0
 155.362304688 314.569335938 42.216796875 373.750976562 42.216796875 509.26953125 c 0
 42.216796875 653.9453125 151.049804688 730.241210938 304.141601562 730.241210938 c 1
 304.141601562 581.379882812 l 1
 264.220703125 581.379882812 243.0625 551.458984375 243.0625 509.26953125 c 0
 243.0625 467.080078125 264.220703125 437.159179688 304.141601562 437.159179688 c 0
 344.061523438 437.159179688 365.219726562 467.080078125 365.219726562 509.26953125 c 0
 365.219726562 551.458984375 344.061523438 581.379882812 304.141601562 581.379882812 c 1
304.141601562 314.569335938 m 1
 304.141601562 437.159179688 l 1
 462.624023438 437.159179688 582.547851562 372.79296875 582.547851562 228.033203125 c 0
 582.547851562 74.0615234375 466.955078125 -7.3642578125 304.141601562 -7.3642578125 c 0
 141.327148438 -7.3642578125 25.734375 74.0615234375 25.734375 228.033203125 c 0
 25.734375 372.79296875 145.658203125 437.159179688 304.141601562 437.159179688 c 1
 304.141601562 314.569335938 l 1
 254.624023438 314.569335938 226.581054688 279.416992188 226.581054688 228.033203125 c 0
 226.581054688 176.6484375 254.624023438 141.497070312 304.141601562 141.497070312 c 0
 353.659179688 141.497070312 381.701171875 176.6484375 381.701171875 228.033203125 c 0
 381.701171875 279.416992188 353.659179688 314.569335938 304.141601562 314.569335938 c 1
EndSplineSet
EndChar

StartChar: nine
Encoding: 57 57 25
Width: 592
Flags: HW
LayerCount: 2
Fore
SplineSet
137.162109375 185.45703125 m 1
 170.120117188 157.094726562 212.158203125 141.497070312 255.638671875 141.497070312 c 0
 410.294921875 141.497070312 381.701171875 310.66015625 381.701171875 487.63671875 c 0
 381.701171875 542.16796875 355.36328125 581.379882812 304.141601562 581.379882812 c 0
 252.918945312 581.379882812 226.581054688 542.16796875 226.581054688 487.63671875 c 0
 226.581054688 436.698242188 254.856445312 402.135742188 304.141601562 402.135742188 c 0
 353.42578125 402.135742188 381.701171875 436.698242188 381.701171875 487.63671875 c 1
 434.241210938 487.63671875 l 1
 458.623046875 366.4453125 365.954101562 253.274414062 242.333007812 253.274414062 c 0
 105.67578125 253.274414062 25.734375 347.271484375 25.734375 487.63671875 c 0
 25.734375 644.301757812 140.068359375 730.241210938 304.141601562 730.241210938 c 0
 484.213867188 730.241210938 582.547851562 598.338867188 582.547851562 409.516601562 c 0
 582.547851562 170.000976562 477.048828125 -7.3642578125 255.638671875 -7.3642578125 c 0
 167.3515625 -7.3642578125 82.1708984375 25.2197265625 16.4228515625 84.142578125 c 1
 137.162109375 185.45703125 l 1
EndSplineSet
EndChar

StartChar: colon
Encoding: 58 58 26
Width: 296
Flags: HW
LayerCount: 2
Fore
SplineSet
258.01953125 98.080078125 m 0
 258.01953125 70.11328125 246.908203125 43.294921875 227.134765625 23.5205078125 c 0
 207.360351562 3.7470703125 180.541992188 -7.3642578125 152.575195312 -7.3642578125 c 0
 124.608398438 -7.3642578125 97.791015625 3.7470703125 78.0166015625 23.5205078125 c 0
 58.2421875 43.294921875 47.130859375 70.11328125 47.130859375 98.080078125 c 0
 47.130859375 126.046875 58.2421875 152.865234375 78.0166015625 172.638671875 c 0
 97.791015625 192.413085938 124.608398438 203.524414062 152.575195312 203.524414062 c 0
 180.541992188 203.524414062 207.360351562 192.413085938 227.134765625 172.638671875 c 0
 246.908203125 152.865234375 258.01953125 126.046875 258.01953125 98.080078125 c 0
258.01953125 439.365234375 m 0
 258.01953125 411.3984375 246.908203125 384.580078125 227.134765625 364.806640625 c 0
 207.360351562 345.032226562 180.541992188 333.920898438 152.575195312 333.920898438 c 0
 124.608398438 333.920898438 97.791015625 345.032226562 78.0166015625 364.806640625 c 0
 58.2421875 384.580078125 47.130859375 411.3984375 47.130859375 439.365234375 c 0
 47.130859375 467.33203125 58.2421875 494.150390625 78.0166015625 513.923828125 c 0
 97.791015625 533.698242188 124.608398438 544.809570312 152.575195312 544.809570312 c 0
 180.541992188 544.809570312 207.360351562 533.698242188 227.134765625 513.923828125 c 0
 246.908203125 494.150390625 258.01953125 467.33203125 258.01953125 439.365234375 c 0
EndSplineSet
EndChar

StartChar: semicolon
Encoding: 59 59 27
Width: 296
Flags: HW
LayerCount: 2
Fore
SplineSet
258.01953125 98.080078125 m 0
 258.01953125 70.11328125 246.908203125 43.294921875 227.134765625 23.5205078125 c 0
 207.360351562 3.7470703125 180.541992188 -7.3642578125 152.575195312 -7.3642578125 c 0
 124.608398438 -7.3642578125 97.791015625 3.7470703125 78.0166015625 23.5205078125 c 0
 58.2421875 43.294921875 47.130859375 70.11328125 47.130859375 98.080078125 c 0
 47.130859375 126.046875 58.2421875 152.865234375 78.0166015625 172.638671875 c 0
 97.791015625 192.413085938 124.608398438 203.524414062 152.575195312 203.524414062 c 0
 180.541992188 203.524414062 207.360351562 192.413085938 227.134765625 172.638671875 c 0
 246.908203125 152.865234375 258.01953125 126.046875 258.01953125 98.080078125 c 0
78.5703125 103.89453125 m 1
 279.416015625 103.89453125 l 1
 206.495117188 -102.140625 l 1
 25.734375 -102.140625 l 1
 78.5703125 103.89453125 l 1
EndSplineSet
EndChar

StartChar: less
Encoding: 60 60 28
Width: 602
Flags: HW
LayerCount: 2
Fore
SplineSet
25.734375 181.158203125 m 1
 25.734375 356.287109375 l 1
 593.571289062 626.689453125 l 1
 593.571289062 425.84375 l 1
 25.734375 181.158203125 l 1
25.734375 181.158203125 m 1
 25.734375 356.287109375 l 1
 593.571289062 111.6015625 l 1
 593.571289062 -89.244140625 l 1
 25.734375 181.158203125 l 1
EndSplineSet
EndChar

StartChar: equal
Encoding: 61 61 29
Width: 645
Flags: HW
LayerCount: 2
Fore
SplineSet
42.216796875 356.287109375 m 1
 42.216796875 531.416992188 l 1
 621.180664062 531.416992188 l 1
 621.180664062 356.287109375 l 1
 42.216796875 356.287109375 l 1
621.180664062 181.158203125 m 1
 621.180664062 6.0283203125 l 1
 42.216796875 6.0283203125 l 1
 42.216796875 181.158203125 l 1
 621.180664062 181.158203125 l 1
EndSplineSet
EndChar

StartChar: greater
Encoding: 62 62 30
Width: 602
Flags: HW
LayerCount: 2
Fore
SplineSet
593.571289062 181.158203125 m 1
 25.734375 425.84375 l 1
 25.734375 626.689453125 l 1
 593.571289062 356.287109375 l 1
 593.571289062 181.158203125 l 1
593.571289062 181.158203125 m 1
 25.734375 -89.244140625 l 1
 25.734375 111.6015625 l 1
 593.571289062 356.287109375 l 1
 593.571289062 181.158203125 l 1
EndSplineSet
EndChar

StartChar: question
Encoding: 63 63 31
Width: 554
Flags: HW
LayerCount: 2
Fore
SplineSet
12.7578125 598.004882812 m 1
 87.3935546875 682.108398438 194.459960938 730.241210938 306.905273438 730.241210938 c 0
 453.786132812 730.241210938 566.020507812 672.993164062 566.020507812 539.551757812 c 0
 566.020507812 419.572265625 416.419921875 427.591796875 377.865234375 325.379882812 c 0
 367.509765625 297.928710938 367.5859375 268.1328125 367.5859375 238.848632812 c 1
 166.740234375 238.848632812 l 1
 166.740234375 255.998046875 282.204101562 410.524414062 347.455078125 497.84765625 c 0
 356.745117188 510.28125 365.174804688 524.024414062 365.174804688 539.551757812 c 0
 365.174804688 566.032226562 335.728515625 555.112304688 306.905273438 555.112304688 c 0
 246.211914062 555.112304688 188.25390625 529.870117188 146.9140625 485.43359375 c 1
 12.7578125 598.004882812 l 1
372.607421875 98.080078125 m 0
 372.607421875 70.11328125 361.49609375 43.294921875 341.721679688 23.5205078125 c 0
 321.948242188 3.7470703125 295.129882812 -7.3642578125 267.163085938 -7.3642578125 c 0
 239.196289062 -7.3642578125 212.377929688 3.7470703125 192.604492188 23.5205078125 c 0
 172.830078125 43.294921875 161.71875 70.11328125 161.71875 98.080078125 c 0
 161.71875 126.046875 172.830078125 152.865234375 192.604492188 172.638671875 c 0
 212.377929688 192.413085938 239.196289062 203.524414062 267.163085938 203.524414062 c 0
 295.129882812 203.524414062 321.948242188 192.413085938 341.721679688 172.638671875 c 0
 361.49609375 152.865234375 372.607421875 126.046875 372.607421875 98.080078125 c 0
EndSplineSet
EndChar

StartChar: at
Encoding: 64 64 32
Width: 972
Flags: HW
LayerCount: 2
Fore
SplineSet
847.010742188 88.8525390625 m 1
 847.010742188 -77.6083984375 l 1
 731.915039062 -97.1572265625 615.377929688 -106.984375 498.633789062 -106.984375 c 0
 214.189453125 -106.984375 24.4609375 56.2099609375 24.4609375 333.6484375 c 0
 24.4609375 611.0859375 214.189453125 774.28125 498.633789062 774.28125 c 0
 773.97265625 774.28125 972.805664062 642.91015625 972.805664062 384.87109375 c 0
 972.805664062 282.651367188 914.232421875 189.473632812 822.118164062 145.16015625 c 1
 703.98828125 126.556640625 l 1
 524.565429688 201.4921875 l 1
 640.267578125 321.168945312 l 1
 738.887695312 289.319335938 l 1
 766.241210938 313.544921875 781.901367188 348.33203125 781.901367188 384.87109375 c 0
 781.901367188 535.599609375 661.515625 607.8203125 498.633789062 607.8203125 c 0
 326.612304688 607.8203125 215.365234375 503.763671875 215.365234375 333.6484375 c 0
 215.365234375 163.533203125 326.612304688 59.4765625 498.633789062 59.4765625 c 0
 615.377929688 59.4765625 731.915039062 69.3037109375 847.010742188 88.8525390625 c 1
640.267578125 529.786132812 m 1
 806.728515625 529.786132812 l 1
 691.026367188 201.4921875 l 1
 524.565429688 201.4921875 l 1
 640.267578125 529.786132812 l 1
582.416992188 365.639648438 m 1
 554.501953125 366.708007812 526.5703125 367.2421875 498.635742188 367.2421875 c 0
 472.516601562 367.2421875 452.44921875 357.306640625 452.44921875 333.6484375 c 0
 452.44921875 307.512695312 471.348632812 293.017578125 498.635742188 293.017578125 c 0
 581.795898438 293.017578125 653.02734375 352.5546875 667.783203125 434.395507812 c 1
 640.267578125 321.168945312 l 1
 671.331054688 225.043945312 599.655273438 126.556640625 498.635742188 126.556640625 c 0
 358.825195312 126.556640625 261.544921875 200.047851562 261.544921875 333.6484375 c 0
 261.544921875 464.619140625 360.053710938 533.703125 498.635742188 533.703125 c 0
 560.944335938 533.703125 619.661132812 504.54296875 657.31640625 454.899414062 c 1
 582.416992188 365.639648438 l 1
EndSplineSet
EndChar

StartChar: A
Encoding: 65 65 33
Width: 667
Flags: HW
LayerCount: 2
Fore
SplineSet
366.30859375 722 m 1
 466.731445312 722 l 1
 723.015625 0.876953125 l 1
 522.169921875 0.876953125 l 1
 316.09765625 722 l 1
 366.30859375 722 l 1
265.885742188 722 m 1
 416.520507812 722 l 1
 208.921875 0.876953125 l 1
 11.12890625 0.876953125 l 1
 265.885742188 722 l 1
186.911132812 291.646484375 m 1
 545.70703125 291.646484375 l 1
 545.70703125 142.78515625 l 1
 186.911132812 142.78515625 l 1
 186.911132812 291.646484375 l 1
EndSplineSet
EndChar

StartChar: B
Encoding: 66 66 34
Width: 656
Flags: HW
LayerCount: 2
Fore
SplineSet
42.216796875 722 m 1
 337.209960938 722 l 2
 485.703125 722 596.081054688 657.455078125 596.081054688 520.47265625 c 0
 596.081054688 384.799804688 485.083007812 322.8046875 337.209960938 322.8046875 c 1
 42.216796875 384.099609375 l 1
 42.216796875 445.39453125 l 1
 337.209960938 445.39453125 l 2
 371.4375 445.39453125 395.235351562 463.4140625 395.235351562 496.131835938 c 0
 395.235351562 528.850585938 371.4375 546.870117188 337.209960938 546.870117188 c 2
 42.216796875 546.870117188 l 1
 42.216796875 722 l 1
42.216796875 384.099609375 m 1
 337.209960938 384.099609375 l 2
 497.30859375 384.099609375 629.703125 346.702148438 629.703125 206.912109375 c 0
 629.703125 59.1787109375 501.58984375 0.876953125 337.209960938 0.876953125 c 2
 42.216796875 0.876953125 l 1
 142.639648438 176.006835938 l 1
 337.209960938 176.006835938 l 2
 390.116210938 176.006835938 428.857421875 200.196289062 428.857421875 249.405273438 c 0
 428.857421875 298.614257812 390.116210938 322.8046875 337.209960938 322.8046875 c 2
 42.216796875 322.8046875 l 1
 42.216796875 384.099609375 l 1
42.216796875 722 m 1
 243.0625 722 l 1
 243.0625 0.876953125 l 1
 42.216796875 0.876953125 l 1
 42.216796875 722 l 1
EndSplineSet
EndChar

StartChar: C
Encoding: 67 67 35
Width: 651
Flags: HW
LayerCount: 2
Fore
SplineSet
547.467773438 491.614257812 m 1
 504.309570312 532.392578125 447.182617188 555.112304688 387.806640625 555.112304688 c 0
 281.624023438 555.112304688 226.581054688 474.267578125 226.581054688 361.438476562 c 0
 226.581054688 248.609375 281.624023438 167.764648438 387.806640625 167.764648438 c 0
 455.13671875 167.764648438 501.681640625 188.077148438 547.467773438 237.443359375 c 1
 681.624023438 124.872070312 l 1
 607.122070312 40.7763671875 500.15625 -7.3642578125 387.806640625 -7.3642578125 c 0
 164.247070312 -7.3642578125 25.734375 136.467773438 25.734375 361.438476562 c 0
 25.734375 586.409179688 164.247070312 730.241210938 387.806640625 730.241210938 c 0
 511.21875 730.241210938 596.580078125 693.619140625 681.624023438 604.186523438 c 1
 547.467773438 491.614257812 l 1
EndSplineSet
EndChar

StartChar: D
Encoding: 68 68 36
Width: 667
Flags: HW
LayerCount: 2
Fore
SplineSet
42.216796875 546.870117188 m 1
 42.216796875 722 l 1
 308.547851562 722 l 2
 527.274414062 722 667.950195312 588.547851562 667.950195312 371.737304688 c 0
 667.950195312 146.435546875 531.44921875 0.876953125 308.547851562 0.876953125 c 2
 42.216796875 0.876953125 l 1
 42.216796875 176.006835938 l 1
 308.547851562 176.006835938 l 2
 414.280273438 176.006835938 467.104492188 258.448242188 467.104492188 371.737304688 c 0
 467.104492188 476.018554688 409.376953125 546.870117188 308.547851562 546.870117188 c 2
 42.216796875 546.870117188 l 1
42.216796875 722 m 1
 243.0625 722 l 1
 243.0625 0.876953125 l 1
 42.216796875 0.876953125 l 1
 42.216796875 722 l 1
EndSplineSet
EndChar

StartChar: E
Encoding: 69 69 37
Width: 592
Flags: HW
LayerCount: 2
Fore
SplineSet
42.216796875 722 m 1
 243.0625 722 l 1
 243.0625 0.876953125 l 1
 42.216796875 0.876953125 l 1
 42.216796875 722 l 1
142.639648438 546.870117188 m 1
 142.639648438 722 l 1
 546.642578125 722 l 1
 546.642578125 546.870117188 l 1
 142.639648438 546.870117188 l 1
142.639648438 273.874023438 m 1
 142.639648438 449.002929688 l 1
 486.012695312 449.002929688 l 1
 486.012695312 273.874023438 l 1
 142.639648438 273.874023438 l 1
142.639648438 0.876953125 m 1
 142.639648438 176.006835938 l 1
 576.95703125 176.006835938 l 1
 576.95703125 0.876953125 l 1
 142.639648438 0.876953125 l 1
EndSplineSet
EndChar

StartChar: F
Encoding: 70 70 38
Width: 586
Flags: HW
LayerCount: 2
Fore
SplineSet
42.216796875 722 m 1
 243.0625 722 l 1
 243.0625 0.876953125 l 1
 42.216796875 0.876953125 l 1
 42.216796875 722 l 1
142.639648438 546.870117188 m 1
 142.639648438 722 l 1
 541.682617188 722 l 1
 541.682617188 546.870117188 l 1
 142.639648438 546.870117188 l 1
142.639648438 273.874023438 m 1
 142.639648438 449.002929688 l 1
 481.603515625 449.002929688 l 1
 481.603515625 273.874023438 l 1
 142.639648438 273.874023438 l 1
EndSplineSet
EndChar

StartChar: G
Encoding: 71 71 39
Width: 699
Flags: HW
LayerCount: 2
Fore
SplineSet
558.62109375 493.674804688 m 1
 513.346679688 533.28125 455.236328125 555.112304688 395.083007812 555.112304688 c 0
 286.19921875 555.112304688 226.581054688 475.528320312 226.581054688 361.438476562 c 0
 226.581054688 250.911132812 288.08203125 176.006835938 395.083007812 176.006835938 c 0
 494.319335938 176.006835938 593.5546875 176.865234375 692.77734375 178.58203125 c 1
 692.77734375 3.453125 l 1
 593.5546875 1.7353515625 494.319335938 0.876953125 395.083007812 0.876953125 c 0
 170.184570312 0.876953125 25.734375 138.381835938 25.734375 361.438476562 c 0
 25.734375 587.866210938 168.541015625 730.241210938 395.083007812 730.241210938 c 0
 506.875 730.241210938 614.0390625 685.60546875 692.77734375 606.24609375 c 1
 558.62109375 493.674804688 l 1
491.930664062 3.453125 m 1
 491.930664062 361.438476562 l 1
 692.77734375 361.438476562 l 1
 692.77734375 3.453125 l 1
 491.930664062 3.453125 l 1
692.77734375 449.002929688 m 1
 692.77734375 273.874023438 l 1
 359.255859375 273.874023438 l 1
 359.255859375 449.002929688 l 1
 692.77734375 449.002929688 l 1
EndSplineSet
EndChar

StartChar: H
Encoding: 72 72 40
Width: 656
Flags: HW
LayerCount: 2
Fore
SplineSet
42.216796875 722 m 1
 243.0625 722 l 1
 243.0625 0.876953125 l 1
 42.216796875 0.876953125 l 1
 42.216796875 722 l 1
431.358398438 0.876953125 m 1
 431.358398438 722 l 1
 632.204101562 722 l 1
 632.204101562 0.876953125 l 1
 431.358398438 0.876953125 l 1
142.639648438 309.931640625 m 1
 142.639648438 485.061523438 l 1
 531.78125 485.061523438 l 1
 531.78125 309.931640625 l 1
 142.639648438 309.931640625 l 1
EndSplineSet
EndChar

StartChar: I
Encoding: 73 73 41
Width: 247
Flags: HW
LayerCount: 2
Fore
SplineSet
27.3505859375 722 m 1
 228.196289062 722 l 1
 228.196289062 0.876953125 l 1
 27.3505859375 0.876953125 l 1
 27.3505859375 722 l 1
EndSplineSet
EndChar

StartChar: J
Encoding: 74 74 42
Width: 516
Flags: HW
LayerCount: 2
Fore
SplineSet
313.971679688 722 m 1
 514.817382812 722 l 1
 514.817382812 253.274414062 l 2
 514.817382812 91.7568359375 409.623046875 -7.3642578125 246.49609375 -7.3642578125 c 0
 152.137695312 -7.3642578125 86.5458984375 15.5771484375 12.7578125 74.3876953125 c 1
 146.9140625 186.959960938 l 1
 174.728515625 154.875976562 204.034179688 141.497070312 246.49609375 141.497070312 c 0
 299.860351562 141.497070312 313.971679688 192.126953125 313.971679688 253.274414062 c 2
 313.971679688 722 l 1
EndSplineSet
EndChar

StartChar: K
Encoding: 75 75 43
Width: 624
Flags: HW
LayerCount: 2
Fore
SplineSet
42.216796875 722 m 1
 243.0625 722 l 1
 243.0625 0.876953125 l 1
 42.216796875 0.876953125 l 1
 42.216796875 722 l 1
407.908203125 722 m 1
 680.981445312 722 l 1
 443.908203125 361.438476562 l 1
 680.981445312 0.876953125 l 1
 407.908203125 0.876953125 l 1
 243.0625 361.438476562 l 1
 407.908203125 722 l 1
EndSplineSet
EndChar

StartChar: L
Encoding: 76 76 44
Width: 559
Flags: HW
LayerCount: 2
Fore
SplineSet
42.216796875 722 m 1
 243.0625 722 l 1
 243.0625 0.876953125 l 1
 42.216796875 0.876953125 l 1
 42.216796875 722 l 1
142.639648438 0.876953125 m 1
 142.639648438 176.006835938 l 1
 528.346679688 176.006835938 l 1
 528.346679688 0.876953125 l 1
 142.639648438 0.876953125 l 1
EndSplineSet
EndChar

StartChar: M
Encoding: 77 77 45
Width: 807
Flags: HW
LayerCount: 2
Fore
SplineSet
42.216796875 722 m 1
 243.0625 722 l 1
 243.0625 0.876953125 l 1
 42.216796875 0.876953125 l 1
 42.216796875 722 l 1
585.678710938 722 m 1
 786.525390625 722 l 1
 786.525390625 0.876953125 l 1
 585.678710938 0.876953125 l 1
 585.678710938 722 l 1
42.216796875 722 m 1
 243.0625 722 l 1
 501.935546875 181.158203125 l 1
 326.805664062 181.158203125 l 1
 42.216796875 722 l 1
585.678710938 722 m 1
 786.525390625 722 l 1
 501.935546875 181.158203125 l 1
 326.805664062 181.158203125 l 1
 585.678710938 722 l 1
EndSplineSet
EndChar

StartChar: N
Encoding: 78 78 46
Width: 688
Flags: HW
LayerCount: 2
Fore
SplineSet
42.216796875 722 m 1
 243.0625 722 l 1
 243.0625 0.876953125 l 1
 42.216796875 0.876953125 l 1
 42.216796875 722 l 1
464.42578125 722 m 1
 665.271484375 722 l 1
 665.271484375 0.876953125 l 1
 464.42578125 0.876953125 l 1
 464.42578125 722 l 1
42.216796875 722 m 1
 243.0625 722 l 1
 639.5546875 0.876953125 l 1
 464.42578125 0.876953125 l 1
 42.216796875 722 l 1
EndSplineSet
EndChar

StartChar: O
Encoding: 79 79 47
Width: 710
Flags: HW
LayerCount: 2
Fore
SplineSet
364.767578125 730.241210938 m 1
 579.104492188 730.241210938 703.80078125 581.986328125 703.80078125 361.438476562 c 0
 703.80078125 140.890625 579.104492188 -7.3642578125 364.767578125 -7.3642578125 c 0
 150.431640625 -7.3642578125 25.734375 140.890625 25.734375 361.438476562 c 0
 25.734375 581.986328125 150.431640625 730.241210938 364.767578125 730.241210938 c 1
 364.767578125 555.112304688 l 1
 266.403320312 555.112304688 226.581054688 470.551757812 226.581054688 361.438476562 c 0
 226.581054688 252.325195312 266.403320312 167.764648438 364.767578125 167.764648438 c 0
 463.131835938 167.764648438 502.955078125 252.325195312 502.955078125 361.438476562 c 0
 502.955078125 470.551757812 463.131835938 555.112304688 364.767578125 555.112304688 c 1
 364.767578125 730.241210938 l 1
EndSplineSet
EndChar

StartChar: P
Encoding: 80 80 48
Width: 645
Flags: HW
LayerCount: 2
Fore
SplineSet
42.216796875 722 m 1
 243.0625 722 l 1
 243.0625 0.876953125 l 1
 42.216796875 0.876953125 l 1
 42.216796875 722 l 1
142.639648438 722 m 1
 364.76953125 722 l 2
 524.98828125 722 637.662109375 639.907226562 637.662109375 487.63671875 c 0
 637.662109375 335.3671875 524.98828125 253.274414062 364.76953125 253.274414062 c 2
 142.639648438 253.274414062 l 1
 142.639648438 428.404296875 l 1
 364.76953125 428.404296875 l 2
 406.616210938 428.404296875 436.81640625 448.40625 436.81640625 487.63671875 c 0
 436.81640625 526.868164062 406.616210938 546.870117188 364.76953125 546.870117188 c 2
 142.639648438 546.870117188 l 1
 142.639648438 722 l 1
EndSplineSet
EndChar

StartChar: Q
Encoding: 81 81 49
Width: 709
Flags: HW
LayerCount: 2
Fore
SplineSet
364.321289062 730.326171875 m 1
 578.395507812 730.326171875 702.939453125 582.252929688 702.939453125 361.974609375 c 0
 702.939453125 141.697265625 578.395507812 -6.376953125 364.321289062 -6.376953125 c 0
 150.247070312 -6.376953125 25.703125 141.697265625 25.703125 361.974609375 c 0
 25.703125 582.252929688 150.247070312 730.326171875 364.321289062 730.326171875 c 1
 364.321289062 555.411132812 l 1
 266.077148438 555.411132812 226.303710938 470.955078125 226.303710938 361.974609375 c 0
 226.303710938 252.995117188 266.077148438 168.538085938 364.321289062 168.538085938 c 0
 462.565429688 168.538085938 502.33984375 252.995117188 502.33984375 361.974609375 c 0
 502.33984375 470.955078125 462.565429688 555.411132812 364.321289062 555.411132812 c 1
 364.321289062 730.326171875 l 1
464.622070312 1.8544921875 m 1
 464.622070312 -20.7763671875 516.581054688 -20.78125 557.6171875 -20.78125 c 2
 602.639648438 -20.78125 l 1
 602.639648438 -195.696289062 l 1
 557.6171875 -195.696289062 l 2
 410.376953125 -195.696289062 264.021484375 -129.1328125 264.021484375 1.8544921875 c 1
 464.622070312 1.8544921875 l 1
EndSplineSet
EndChar

StartChar: R
Encoding: 82 82 50
Width: 645
Flags: HW
LayerCount: 2
Fore
SplineSet
42.216796875 722 m 1
 243.0625 722 l 1
 243.0625 0.876953125 l 1
 42.216796875 0.876953125 l 1
 42.216796875 722 l 1
142.639648438 722 m 1
 364.76953125 722 l 2
 524.98828125 722 637.662109375 639.907226562 637.662109375 487.63671875 c 0
 637.662109375 335.3671875 524.98828125 253.274414062 364.76953125 253.274414062 c 2
 142.639648438 253.274414062 l 1
 142.639648438 428.404296875 l 1
 364.76953125 428.404296875 l 2
 406.616210938 428.404296875 436.81640625 448.40625 436.81640625 487.63671875 c 0
 436.81640625 526.868164062 406.616210938 546.870117188 364.76953125 546.870117188 c 2
 142.639648438 546.870117188 l 1
 142.639648438 722 l 1
465.192382812 340.838867188 m 1
 637.662109375 0.876953125 l 1
 436.81640625 0.876953125 l 1
 264.346679688 340.838867188 l 1
 465.192382812 340.838867188 l 1
EndSplineSet
EndChar

StartChar: S
Encoding: 83 83 51
Width: 624
Flags: HW
LayerCount: 2
Fore
SplineSet
327.065429688 730.241210938 m 0
 435.844726562 730.241210938 538.966796875 681.765625 608.372070312 598.004882812 c 1
 474.216796875 485.43359375 l 1
 438.086914062 529.538085938 384.079101562 555.112304688 327.065429688 555.112304688 c 0
 274.17578125 555.112304688 226.581054688 554.143554688 226.581054688 508.729492188 c 0
 226.581054688 481.209960938 247.401367188 468.401367188 275.8828125 462.34765625 c 2
 400.962890625 435.760742188 l 2
 528.44921875 408.662109375 615.616210938 343.16796875 615.616210938 218.267578125 c 0
 615.616210938 61.8232421875 485.705078125 -7.3642578125 314.28515625 -7.3642578125 c 0
 201.85546875 -7.3642578125 94.8037109375 40.76953125 20.189453125 124.872070312 c 1
 154.344726562 237.443359375 l 1
 195.6640625 193.0078125 253.607421875 167.764648438 314.28515625 167.764648438 c 0
 367.782226562 167.764648438 414.770507812 172.310546875 414.770507812 218.267578125 c 0
 414.770507812 247.141601562 394.875 262.51953125 365.467773438 268.770507812 c 2
 240.387695312 295.357421875 l 2
 113.837890625 322.2578125 25.734375 385.209960938 25.734375 508.729492188 c 0
 25.734375 663.833007812 156.291992188 730.241210938 327.065429688 730.241210938 c 0
EndSplineSet
EndChar

StartChar: T
Encoding: 84 84 52
Width: 656
Flags: HW
LayerCount: 2
Fore
SplineSet
68.25390625 546.870117188 m 1
 68.25390625 722 l 1
 606.166992188 722 l 1
 606.166992188 546.870117188 l 1
 68.25390625 546.870117188 l 1
236.787109375 634.434570312 m 1
 437.633789062 634.434570312 l 1
 437.633789062 0.876953125 l 1
 236.787109375 0.876953125 l 1
 236.787109375 634.434570312 l 1
EndSplineSet
EndChar

StartChar: U
Encoding: 85 85 53
Width: 683
Flags: HW
LayerCount: 2
Fore
SplineSet
42.216796875 722 m 1
 243.0625 722 l 1
 243.0625 309.649414062 l 2
 243.0625 228.66796875 276.766601562 167.764648438 350.989257812 167.764648438 c 0
 426.248046875 167.764648438 461.96875 228.176757812 461.96875 309.649414062 c 2
 461.96875 722 l 1
 659.76171875 722 l 1
 659.76171875 309.649414062 l 2
 659.76171875 116.755859375 542.15625 -7.3642578125 350.989257812 -7.3642578125 c 0
 159.822265625 -7.3642578125 42.216796875 116.755859375 42.216796875 309.649414062 c 2
 42.216796875 722 l 1
EndSplineSet
EndChar

StartChar: V
Encoding: 86 86 54
Width: 705
Flags: HW
LayerCount: 2
Fore
SplineSet
21.61328125 722 m 1
 222.458984375 722 l 1
 402.1796875 0.876953125 l 1
 261.588867188 0.876953125 l 1
 21.61328125 722 l 1
504.616210938 722 m 1
 702.41015625 722 l 1
 501.077148438 0.876953125 l 1
 303.283203125 0.876953125 l 1
 504.616210938 722 l 1
EndSplineSet
EndChar

StartChar: W
Encoding: 87 87 55
Width: 882
Flags: HW
LayerCount: 2
Fore
SplineSet
21.61328125 722 m 1
 222.458984375 722 l 1
 280.369140625 217.215820312 l 1
 244.93359375 0.876953125 l 1
 104.341796875 0.876953125 l 1
 79.5234375 217.215820312 l 1
 21.61328125 722 l 1
164.596679688 0.876953125 m 1
 290.481445312 541.71875 l 1
 166.388671875 181.158203125 l 1
 352.528320312 722 l 1
 493.120117188 722 l 1
 367.234375 181.158203125 l 1
 491.327148438 541.71875 l 1
 305.1875 0.876953125 l 1
 164.596679688 0.876953125 l 1
412.782226562 722 m 1
 553.374023438 722 l 1
 739.513671875 181.158203125 l 1
 615.420898438 541.71875 l 1
 741.305664062 0.876953125 l 1
 600.71484375 0.876953125 l 1
 414.575195312 541.71875 l 1
 538.66796875 181.158203125 l 1
 412.782226562 722 l 1
660.96875 0.876953125 m 1
 662.760742188 541.71875 l 1
 683.443359375 722 l 1
 884.2890625 722 l 1
 863.606445312 541.71875 l 1
 801.560546875 0.876953125 l 1
 660.96875 0.876953125 l 1
EndSplineSet
EndChar

StartChar: X
Encoding: 88 88 56
Width: 710
Flags: HW
LayerCount: 2
Fore
SplineSet
18.2822265625 722 m 1
 236.536132812 722 l 1
 465.98046875 361.438476562 l 1
 712.83203125 0.876953125 l 1
 494.579101562 0.876953125 l 1
 265.134765625 361.438476562 l 1
 18.2822265625 722 l 1
515.038085938 722 m 1
 712.83203125 722 l 1
 464.454101562 361.438476562 l 1
 216.076171875 0.876953125 l 1
 18.2822265625 0.876953125 l 1
 266.66015625 361.438476562 l 1
 515.038085938 722 l 1
EndSplineSet
EndChar

StartChar: Y
Encoding: 89 89 57
Width: 635
Flags: HW
LayerCount: 2
Fore
SplineSet
21.61328125 722 m 1
 222.458984375 722 l 1
 366.35546875 325.379882812 l 1
 225.763671875 325.379882812 l 1
 21.61328125 722 l 1
429.9140625 722 m 1
 630.759765625 722 l 1
 426.609375 325.379882812 l 1
 286.017578125 325.379882812 l 1
 429.9140625 722 l 1
225.763671875 325.379882812 m 1
 426.609375 325.379882812 l 1
 426.609375 0.876953125 l 1
 225.763671875 0.876953125 l 1
 225.763671875 325.379882812 l 1
EndSplineSet
EndChar

StartChar: Z
Encoding: 90 90 58
Width: 645
Flags: HW
LayerCount: 2
Fore
SplineSet
42.216796875 546.870117188 m 1
 42.216796875 722 l 1
 621.180664062 722 l 1
 621.180664062 546.870117188 l 1
 42.216796875 546.870117188 l 1
42.216796875 0.876953125 m 1
 42.216796875 176.006835938 l 1
 621.180664062 176.006835938 l 1
 621.180664062 0.876953125 l 1
 42.216796875 0.876953125 l 1
420.334960938 546.870117188 m 1
 621.180664062 546.870117188 l 1
 243.0625 176.006835938 l 1
 42.216796875 176.006835938 l 1
 420.334960938 546.870117188 l 1
EndSplineSet
EndChar

StartChar: bracketleft
Encoding: 91 91 59
Width: 408
Flags: HW
LayerCount: 2
Fore
SplineSet
40.072265625 772.958007812 m 1
 230.717773438 772.958007812 l 1
 230.717773438 -107.110351562 l 1
 40.072265625 -107.110351562 l 1
 40.072265625 772.958007812 l 1
230.717773438 606.72265625 m 1
 230.717773438 772.958007812 l 1
 380.369140625 772.958007812 l 1
 380.369140625 606.72265625 l 1
 230.717773438 606.72265625 l 1
230.717773438 -107.110351562 m 1
 230.717773438 59.1240234375 l 1
 380.369140625 59.1240234375 l 1
 380.369140625 -107.110351562 l 1
 230.717773438 -107.110351562 l 1
EndSplineSet
EndChar

StartChar: backslash
Encoding: 92 92 60
Width: 446
Flags: HW
LayerCount: 2
Fore
SplineSet
17.4931640625 730.241210938 m 1
 218.338867188 730.241210938 l 1
 441.978515625 -7.3642578125 l 1
 241.1328125 -7.3642578125 l 1
 17.4931640625 730.241210938 l 1
EndSplineSet
EndChar

StartChar: bracketright
Encoding: 93 93 61
Width: 408
Flags: HW
LayerCount: 2
Fore
SplineSet
189.724609375 772.958007812 m 1
 380.369140625 772.958007812 l 1
 380.369140625 -107.110351562 l 1
 189.724609375 -107.110351562 l 1
 189.724609375 772.958007812 l 1
189.724609375 606.72265625 m 1
 40.072265625 606.72265625 l 1
 40.072265625 772.958007812 l 1
 189.724609375 772.958007812 l 1
 189.724609375 606.72265625 l 1
189.724609375 -107.110351562 m 1
 40.072265625 -107.110351562 l 1
 40.072265625 59.1240234375 l 1
 189.724609375 59.1240234375 l 1
 189.724609375 -107.110351562 l 1
EndSplineSet
EndChar

StartChar: asciicircum
Encoding: 94 94 62
Width: 526
Flags: HW
LayerCount: 2
Fore
SplineSet
25.15625 530.084960938 m 1
 175.88671875 773.549804688 l 1
 364.848632812 773.549804688 l 1
 515.579101562 530.084960938 l 1
 421.098632812 387.322265625 l 1
 270.368164062 630.787109375 l 1
 270.368164062 630.787109375 l 1
 119.637695312 387.322265625 l 1
 25.15625 530.084960938 l 1
EndSplineSet
EndChar

StartChar: underscore
Encoding: 95 95 63
Width: 570
Flags: HW
LayerCount: 2
Fore
SplineSet
42.216796875 0.876953125 m 1
 544.01953125 0.876953125 l 1
 544.01953125 -174.251953125 l 1
 42.216796875 -174.251953125 l 1
 42.216796875 0.876953125 l 1
EndSplineSet
EndChar

StartChar: grave
Encoding: 96 96 64
Width: 288
Flags: HW
LayerCount: 2
Fore
SplineSet
50.8798828125 800 m 1
 246.823242188 800 l 1
 334.998046875 598.993164062 l 1
 158.649414062 598.993164062 l 1
 50.8798828125 800 l 1
EndSplineSet
EndChar

StartChar: a
Encoding: 97 97 65
Width: 570
Flags: HW
LayerCount: 2
Fore
SplineSet
31.6220703125 450.48828125 m 1
 101.693359375 517.73828125 168.997070312 544.809570312 266.118164062 544.809570312 c 0
 425.66015625 544.809570312 544.01953125 474.982421875 544.01953125 327.6484375 c 2
 544.01953125 0.876953125 l 1
 363.259765625 0.876953125 l 1
 343.173828125 155.274414062 l 1
 343.173828125 327.6484375 l 2
 343.173828125 371.448242188 311.734375 395.948242188 266.118164062 395.948242188 c 0
 217.670898438 395.948242188 183.979492188 384.440429688 145.655273438 354.801757812 c 1
 31.6220703125 450.48828125 l 1
443.596679688 330.017578125 m 1
 443.596679688 207.427734375 l 1
 263.905273438 207.427734375 l 2
 235.911132812 207.427734375 216.538085938 192.529296875 216.538085938 165.705078125 c 0
 216.538085938 138.880859375 235.911132812 123.982421875 263.905273438 123.982421875 c 0
 296.611328125 123.982421875 319.287109375 132.93359375 343.173828125 155.274414062 c 1
 378.19921875 94.6083984375 l 1
 337.974609375 24.5234375 282.905273438 -7.3642578125 202.09765625 -7.3642578125 c 0
 94.5302734375 -7.3642578125 25.734375 58.828125 25.734375 165.705078125 c 0
 25.734375 284.958007812 130.579101562 330.017578125 263.905273438 330.017578125 c 2
 443.596679688 330.017578125 l 1
EndSplineSet
EndChar

StartChar: b
Encoding: 98 98 66
Width: 628
Flags: HW
LayerCount: 2
Fore
SplineSet
42.216796875 730.241210938 m 1
 243.0625 730.241210938 l 1
 243.0625 145.099609375 l 1
 222.9765625 0.876953125 l 1
 42.216796875 0.876953125 l 1
 42.216796875 730.241210938 l 1
189.400390625 378.80078125 m 1
 207.237304688 475.01171875 291.165039062 544.809570312 389.014648438 544.809570312 c 0
 540.811523438 544.809570312 620.025390625 429.763671875 620.025390625 268.72265625 c 0
 620.025390625 107.680664062 540.811523438 -7.3642578125 389.014648438 -7.3642578125 c 0
 283.026367188 -7.3642578125 195.454101562 75.341796875 189.400390625 181.158203125 c 1
 243.0625 226.185546875 l 1
 240.338867188 180.247070312 276.860351562 141.497070312 322.879882812 141.497070312 c 0
 389.275390625 141.497070312 419.1796875 196.18359375 419.1796875 268.72265625 c 0
 419.1796875 341.26171875 389.275390625 395.948242188 322.879882812 395.948242188 c 0
 285.174804688 395.948242188 252.2890625 370.33203125 243.0625 333.7734375 c 1
 189.400390625 378.80078125 l 1
EndSplineSet
EndChar

StartChar: c
Encoding: 99 99 67
Width: 543
Flags: HW
LayerCount: 2
Fore
SplineSet
557.668945312 416.038085938 m 1
 423.512695312 303.466796875 l 1
 414.107421875 357.252929688 378.475585938 387.194335938 323.873046875 387.194335938 c 0
 259.40234375 387.194335938 226.581054688 337.515625 226.581054688 268.72265625 c 0
 226.581054688 199.9296875 259.40234375 150.250976562 323.873046875 150.250976562 c 0
 373.015625 150.250976562 415.047851562 185.571289062 423.512695312 233.978515625 c 1
 557.668945312 121.40625 l 1
 506.969726562 41.2373046875 418.728515625 -7.3642578125 323.873046875 -7.3642578125 c 0
 145.208007812 -7.3642578125 25.734375 94.662109375 25.734375 268.72265625 c 0
 25.734375 442.783203125 145.208007812 544.809570312 323.873046875 544.809570312 c 0
 429.268554688 544.809570312 501.3359375 505.116210938 557.668945312 416.038085938 c 1
EndSplineSet
EndChar

StartChar: d
Encoding: 100 100 68
Width: 628
Flags: HW
LayerCount: 2
Fore
SplineSet
402.698242188 730.241210938 m 1
 603.543945312 730.241210938 l 1
 603.543945312 0.876953125 l 1
 422.783203125 0.876953125 l 1
 402.698242188 145.099609375 l 1
 402.698242188 730.241210938 l 1
456.359375 378.80078125 m 1
 402.698242188 333.7734375 l 1
 393.470703125 370.33203125 360.584960938 395.948242188 322.879882812 395.948242188 c 0
 256.485351562 395.948242188 226.581054688 341.26171875 226.581054688 268.72265625 c 0
 226.581054688 196.18359375 256.485351562 141.497070312 322.879882812 141.497070312 c 0
 368.899414062 141.497070312 405.420898438 180.247070312 402.698242188 226.185546875 c 1
 456.359375 181.158203125 l 1
 450.306640625 75.341796875 362.733398438 -7.3642578125 256.745117188 -7.3642578125 c 0
 104.948242188 -7.3642578125 25.734375 107.680664062 25.734375 268.72265625 c 0
 25.734375 429.763671875 104.948242188 544.809570312 256.745117188 544.809570312 c 0
 354.594726562 544.809570312 438.522460938 475.01171875 456.359375 378.80078125 c 1
EndSplineSet
EndChar

StartChar: e
Encoding: 101 101 69
Width: 586
Flags: HW
LayerCount: 2
Fore
SplineSet
553.185546875 210.345703125 m 1
 386.233398438 210.345703125 l 1
 386.233398438 327.098632812 l 2
 386.233398438 370.176757812 357.313476562 395.948242188 313.403320312 395.948242188 c 0
 263.395507812 395.948242188 226.581054688 373.4765625 226.581054688 327.098632812 c 2
 226.581054688 268.72265625 l 1
 226.581054688 210.345703125 l 2
 226.581054688 160.74609375 261.887695312 132.739257812 313.403320312 132.739257812 c 0
 365.3125 132.739257812 414.267578125 156.88671875 445.861328125 198.073242188 c 1
 553.185546875 108.015625 l 1
 494.959960938 35.0966796875 406.716796875 -7.3642578125 313.403320312 -7.3642578125 c 0
 139.166015625 -7.3642578125 25.734375 96.9111328125 25.734375 268.72265625 c 0
 25.734375 440.534179688 139.166015625 544.809570312 313.403320312 544.809570312 c 0
 471.91015625 544.809570312 577.036132812 452.919921875 577.036132812 297.911132812 c 0
 577.036132812 263.696289062 570.537109375 239.833984375 553.185546875 210.345703125 c 1
126.157226562 210.345703125 m 1
 126.157226562 327.098632812 l 1
 577.036132812 327.098632812 l 1
 553.185546875 210.345703125 l 1
 126.157226562 210.345703125 l 1
EndSplineSet
EndChar

StartChar: f
Encoding: 102 102 70
Width: 452
Flags: HW
LayerCount: 2
Fore
SplineSet
113.553710938 0.876953125 m 1
 113.553710938 541.71875 l 2
 113.553710938 668.888671875 182.772460938 755.99609375 305.248046875 755.99609375 c 0
 358.5390625 755.99609375 411.828125 755.241210938 465.098632812 753.733398438 c 1
 439.249023438 607.134765625 l 1
 371.3828125 607.134765625 l 2
 327.219726562 607.134765625 314.399414062 587.975585938 314.399414062 541.71875 c 2
 314.399414062 0.876953125 l 1
 113.553710938 0.876953125 l 1
42.216796875 536.567382812 m 1
 439.249023438 536.567382812 l 1
 439.249023438 387.70703125 l 1
 42.216796875 387.70703125 l 1
 42.216796875 536.567382812 l 1
EndSplineSet
EndChar

StartChar: g
Encoding: 103 103 71
Width: 591
Flags: HW
LayerCount: 2
Fore
SplineSet
267.912109375 545.122070312 m 1
 406.227539062 545.122070312 510.122070312 487.286132812 510.122070312 360.430664062 c 0
 510.122070312 233.575195312 406.227539062 175.739257812 267.912109375 175.739257812 c 0
 129.59765625 175.739257812 25.703125 233.575195312 25.703125 360.430664062 c 0
 25.703125 487.286132812 129.59765625 545.122070312 267.912109375 545.122070312 c 1
 267.912109375 422.681640625 l 1
 225.69921875 422.681640625 196.21484375 400.690429688 196.21484375 360.430664062 c 0
 196.21484375 320.170898438 225.69921875 298.1796875 267.912109375 298.1796875 c 0
 310.125976562 298.1796875 339.610351562 320.170898438 339.610351562 360.430664062 c 0
 339.610351562 400.690429688 310.125976562 422.681640625 267.912109375 422.681640625 c 1
 267.912109375 545.122070312 l 1
346.389648438 361.974609375 m 1
 346.389648438 536.890625 l 1
 576.250976562 536.890625 l 1
 576.250976562 361.974609375 l 1
 346.389648438 361.974609375 l 1
267.912109375 236.959960938 m 1
 267.912109375 175.739257812 l 1
 238.137695312 175.739257812 206.2421875 191.956054688 206.2421875 163.13671875 c 0
 206.2421875 150.537109375 237.666992188 150.534179688 262.176757812 150.534179688 c 2
 382.23828125 150.534179688 l 2
 493.1484375 150.534179688 576.250976562 103.715820312 576.250976562 1.8544921875 c 0
 576.250976562 -136.895507812 458.981445312 -195.696289062 305.991210938 -195.696289062 c 0
 154.515625 -195.696289062 25.703125 -170.270507812 25.703125 -39.3046875 c 0
 25.703125 56.2626953125 153.426757812 51.1650390625 263.34375 51.1650390625 c 1
 245.396484375 1.8544921875 l 1
 225.326171875 -5.4501953125 206.2421875 -18.8251953125 206.2421875 -39.3046875 c 0
 206.2421875 -73.248046875 260.44140625 -73.2568359375 305.991210938 -73.2568359375 c 0
 351.541015625 -73.2568359375 405.740234375 -73.248046875 405.740234375 -39.3046875 c 0
 405.740234375 -19.2158203125 399.647460938 1.8544921875 382.23828125 1.8544921875 c 2
 262.176757812 1.8544921875 l 2
 125.39453125 1.8544921875 -3.6123046875 62.0048828125 25.703125 163.13671875 c 0
 51.73046875 252.926757812 168.791992188 236.959960938 267.912109375 236.959960938 c 1
EndSplineSet
EndChar

StartChar: h
Encoding: 104 104 72
Width: 592
Flags: HW
LayerCount: 2
Fore
SplineSet
42.216796875 722 m 1
 243.0625 722 l 1
 243.0625 0.876953125 l 1
 42.216796875 0.876953125 l 1
 42.216796875 722 l 1
202.815429688 361.420898438 m 1
 192.859375 470.840820312 260.404296875 544.809570312 370.276367188 544.809570312 c 0
 494.985351562 544.809570312 566.065429688 456.805664062 566.065429688 327.6484375 c 2
 566.065429688 0.876953125 l 1
 365.219726562 0.876953125 l 1
 365.219726562 327.6484375 l 2
 365.219726562 368.1796875 343.170898438 395.948242188 304.141601562 395.948242188 c 0
 263.416015625 395.948242188 238.530273438 368.12109375 243.0625 327.6484375 c 1
 202.815429688 361.420898438 l 1
EndSplineSet
EndChar

StartChar: i
Encoding: 105 105 73
Width: 322
Flags: HW
LayerCount: 2
Fore
SplineSet
25.734375 361.438476562 m 1
 25.734375 536.567382812 l 1
 199.424804688 536.567382812 l 1
 199.424804688 361.438476562 l 1
 25.734375 361.438476562 l 1
99.001953125 536.567382812 m 1
 299.84765625 536.567382812 l 1
 299.84765625 0.876953125 l 1
 99.001953125 0.876953125 l 1
 99.001953125 536.567382812 l 1
304.869140625 691.09375 m 0
 304.869140625 663.126953125 293.7578125 636.309570312 273.984375 616.53515625 c 0
 254.209960938 596.76171875 227.391601562 585.649414062 199.424804688 585.649414062 c 0
 171.458007812 585.649414062 144.640625 596.76171875 124.866210938 616.53515625 c 0
 105.091796875 636.309570312 93.98046875 663.126953125 93.98046875 691.09375 c 0
 93.98046875 719.060546875 105.091796875 745.87890625 124.866210938 765.653320312 c 0
 144.640625 785.426757812 171.458007812 796.538085938 199.424804688 796.538085938 c 0
 227.391601562 796.538085938 254.209960938 785.426757812 273.984375 765.653320312 c 0
 293.7578125 745.87890625 304.869140625 719.060546875 304.869140625 691.09375 c 0
EndSplineSet
EndChar

StartChar: j
Encoding: 106 106 74
Width: 290
Flags: HW
LayerCount: 2
Fore
SplineSet
61.0703125 536.890625 m 1
 261.670898438 536.890625 l 1
 261.670898438 1.8544921875 l 2
 261.670898438 -126.57421875 166.514648438 -195.696289062 31.3212890625 -195.696289062 c 2
 12.7421875 -195.696289062 l 1
 12.7421875 -20.78125 l 1
 31.3212890625 -20.78125 l 2
 46.603515625 -20.78125 61.0703125 -12.1533203125 61.0703125 1.8544921875 c 2
 61.0703125 536.890625 l 1
266.685546875 691.227539062 m 0
 266.685546875 663.294921875 255.587890625 636.509765625 235.837890625 616.759765625 c 0
 216.087890625 597.009765625 189.302734375 585.912109375 161.370117188 585.912109375 c 0
 133.4375 585.912109375 106.65234375 597.009765625 86.90234375 616.759765625 c 0
 67.1533203125 636.509765625 56.0546875 663.294921875 56.0546875 691.227539062 c 0
 56.0546875 719.16015625 67.1533203125 745.9453125 86.90234375 765.6953125 c 0
 106.65234375 785.4453125 133.4375 796.54296875 161.370117188 796.54296875 c 0
 189.302734375 796.54296875 216.087890625 785.4453125 235.837890625 765.6953125 c 0
 255.587890625 745.9453125 266.685546875 719.16015625 266.685546875 691.227539062 c 0
EndSplineSet
EndChar

StartChar: k
Encoding: 107 107 75
Width: 548
Flags: HW
LayerCount: 2
Fore
SplineSet
42.216796875 722 m 1
 243.0625 722 l 1
 243.0625 0.876953125 l 1
 42.216796875 0.876953125 l 1
 42.216796875 722 l 1
336.70703125 536.567382812 m 1
 571.422851562 536.567382812 l 1
 443.908203125 268.72265625 l 1
 571.422851562 0.876953125 l 1
 336.70703125 0.876953125 l 1
 243.0625 268.72265625 l 1
 336.70703125 536.567382812 l 1
343.485351562 181.158203125 m 1
 142.639648438 181.158203125 l 1
 142.639648438 356.287109375 l 1
 343.485351562 356.287109375 l 1
 343.485351562 181.158203125 l 1
EndSplineSet
EndChar

StartChar: l
Encoding: 108 108 76
Width: 279
Flags: HW
LayerCount: 2
Fore
SplineSet
43.8857421875 730.241210938 m 1
 244.731445312 730.241210938 l 1
 244.731445312 161.5859375 l 2
 244.731445312 133.247070312 253.322265625 176.006835938 258.946289062 176.006835938 c 2
 287.607421875 176.006835938 l 1
 287.607421875 0.876953125 l 1
 258.946289062 0.876953125 l 2
 136.655273438 0.876953125 43.8857421875 50.0380859375 43.8857421875 161.5859375 c 2
 43.8857421875 730.241210938 l 1
EndSplineSet
EndChar

StartChar: m
Encoding: 109 109 77
Width: 882
Flags: HW
LayerCount: 2
Fore
SplineSet
42.216796875 536.567382812 m 1
 243.0625 536.567382812 l 1
 243.0625 0.876953125 l 1
 42.216796875 0.876953125 l 1
 42.216796875 536.567382812 l 1
202.815429688 390.059570312 m 1
 206.30078125 476.515625 277.403320312 544.809570312 363.930664062 544.809570312 c 0
 457.922851562 544.809570312 516.560546875 483.989257812 513.126953125 390.059570312 c 1
 516.612304688 476.515625 587.71484375 544.809570312 674.2421875 544.809570312 c 0
 796.521484375 544.809570312 863.685546875 455.665039062 863.685546875 327.6484375 c 2
 863.685546875 0.876953125 l 1
 662.83984375 0.876953125 l 1
 662.83984375 327.6484375 l 2
 662.83984375 367.08203125 644.791015625 395.948242188 608.107421875 395.948242188 c 0
 583.208007812 395.948242188 561.127929688 379.948242188 553.374023438 356.287109375 c 1
 553.374023438 327.6484375 l 1
 553.374023438 0.876953125 l 1
 352.528320312 0.876953125 l 1
 352.528320312 327.6484375 l 2
 352.528320312 367.08203125 334.479492188 395.948242188 297.794921875 395.948242188 c 0
 272.896484375 395.948242188 250.815429688 379.948242188 243.0625 356.287109375 c 1
 202.815429688 390.059570312 l 1
EndSplineSet
EndChar

StartChar: n
Encoding: 110 110 78
Width: 581
Flags: HW
LayerCount: 2
Fore
SplineSet
42.216796875 536.567382812 m 1
 243.0625 536.567382812 l 1
 243.0625 0.876953125 l 1
 42.216796875 0.876953125 l 1
 42.216796875 536.567382812 l 1
202.815429688 361.420898438 m 1
 190.67578125 458.810546875 266.62109375 544.809570312 364.764648438 544.809570312 c 0
 487.359375 544.809570312 555.041992188 455.8125 555.041992188 327.6484375 c 2
 555.041992188 0.876953125 l 1
 354.196289062 0.876953125 l 1
 354.196289062 327.6484375 l 2
 354.196289062 367.220703125 335.609375 395.948242188 298.62890625 395.948242188 c 0
 262.641601562 395.948242188 235.741210938 362.883789062 243.0625 327.6484375 c 1
 202.815429688 361.420898438 l 1
EndSplineSet
EndChar

StartChar: o
Encoding: 111 111 79
Width: 618
Flags: HW
LayerCount: 2
Fore
SplineSet
317.919921875 544.809570312 m 1
 493.278320312 544.809570312 610.104492188 443.977539062 610.104492188 272.84375 c 0
 610.104492188 98.419921875 494.8515625 -7.3642578125 317.919921875 -7.3642578125 c 0
 140.98828125 -7.3642578125 25.734375 98.419921875 25.734375 272.84375 c 0
 25.734375 443.977539062 142.561523438 544.809570312 317.919921875 544.809570312 c 1
 317.919921875 395.948242188 l 1
 254.28125 395.948242188 226.581054688 342.7421875 226.581054688 272.84375 c 0
 226.581054688 199.20703125 251.9375 141.497070312 317.919921875 141.497070312 c 0
 383.90234375 141.497070312 409.258789062 199.20703125 409.258789062 272.84375 c 0
 409.258789062 342.7421875 381.55859375 395.948242188 317.919921875 395.948242188 c 1
 317.919921875 544.809570312 l 1
EndSplineSet
EndChar

StartChar: p
Encoding: 112 112 80
Width: 627
Flags: HW
LayerCount: 2
Fore
SplineSet
42.1650390625 536.890625 m 1
 222.704101562 536.890625 l 1
 242.764648438 429.884765625 l 1
 242.764648438 -195.696289062 l 1
 42.1650390625 -195.696289062 l 1
 42.1650390625 536.890625 l 1
189.168945312 379.31640625 m 1
 206.984375 475.409179688 290.80859375 545.122070312 388.5390625 545.122070312 c 0
 540.150390625 545.122070312 619.266601562 430.216796875 619.266601562 269.372070312 c 0
 619.266601562 108.528320312 540.150390625 -6.376953125 388.5390625 -6.376953125 c 0
 282.680664062 -6.376953125 195.21484375 76.228515625 189.168945312 181.915039062 c 1
 242.764648438 226.887695312 l 1
 240.044921875 181.004882812 276.521484375 142.301757812 322.485351562 142.301757812 c 0
 388.798828125 142.301757812 418.666992188 196.921875 418.666992188 269.372070312 c 0
 418.666992188 341.823242188 388.798828125 396.442382812 322.485351562 396.442382812 c 0
 284.826171875 396.442382812 251.98046875 370.857421875 242.764648438 334.34375 c 1
 189.168945312 379.31640625 l 1
EndSplineSet
EndChar

StartChar: q
Encoding: 113 113 81
Width: 627
Flags: HW
LayerCount: 2
Fore
SplineSet
422.266601562 536.890625 m 1
 602.805664062 536.890625 l 1
 602.805664062 -195.696289062 l 1
 402.205078125 -195.696289062 l 1
 402.205078125 429.884765625 l 1
 422.266601562 536.890625 l 1
455.80078125 379.31640625 m 1
 402.205078125 334.34375 l 1
 392.989257812 370.857421875 360.14453125 396.442382812 322.485351562 396.442382812 c 0
 256.170898438 396.442382812 226.303710938 341.823242188 226.303710938 269.372070312 c 0
 226.303710938 196.921875 256.170898438 142.301757812 322.485351562 142.301757812 c 0
 368.448242188 142.301757812 404.924804688 181.004882812 402.205078125 226.887695312 c 1
 455.80078125 181.915039062 l 1
 449.755859375 76.228515625 362.290039062 -6.376953125 256.430664062 -6.376953125 c 0
 104.8203125 -6.376953125 25.703125 108.528320312 25.703125 269.372070312 c 0
 25.703125 430.216796875 104.8203125 545.122070312 256.430664062 545.122070312 c 0
 354.161132812 545.122070312 437.985351562 475.409179688 455.80078125 379.31640625 c 1
EndSplineSet
EndChar

StartChar: r
Encoding: 114 114 82
Width: 387
Flags: HW
LayerCount: 2
Fore
SplineSet
42.216796875 536.567382812 m 1
 243.0625 536.567382812 l 1
 243.0625 0.876953125 l 1
 42.216796875 0.876953125 l 1
 42.216796875 536.567382812 l 1
149.153320312 401.094726562 m 1
 217.16015625 482.139648438 273.016601562 544.809570312 377.994140625 544.809570312 c 1
 377.994140625 369.6796875 l 1
 322.104492188 369.6796875 278.741210938 364.814453125 243.0625 322.294921875 c 1
 149.153320312 401.094726562 l 1
EndSplineSet
EndChar

StartChar: s
Encoding: 115 115 83
Width: 505
Flags: HW
LayerCount: 2
Fore
SplineSet
275.353515625 544.809570312 m 0
 360.063476562 544.809570312 442.141601562 515.375976562 507.545898438 461.543945312 c 1
 386.807617188 360.229492188 l 1
 354.286132812 383.459960938 315.319335938 395.948242188 275.353515625 395.948242188 c 0
 246.32421875 395.948242188 211.435546875 395.943359375 211.435546875 375.2421875 c 0
 211.435546875 358.885742188 227.42578125 355.987304688 245.862304688 354.536132812 c 2
 297.513671875 350.471679688 l 2
 421.311523438 340.728515625 507.545898438 278.766601562 507.545898438 160.88671875 c 0
 507.545898438 34.486328125 392.5078125 -7.3642578125 249.528320312 -7.3642578125 c 0
 161.485351562 -7.3642578125 76.5595703125 25.2333984375 11.12890625 84.142578125 c 1
 131.868164062 185.45703125 l 1
 164.510742188 157.107421875 206.29296875 141.497070312 249.528320312 141.497070312 c 0
 283.717773438 141.497070312 326.786132812 141.500976562 326.786132812 160.88671875 c 0
 326.786132812 180.365234375 305.891601562 178.563476562 284.118164062 180.27734375 c 2
 232.466796875 184.342773438 l 2
 111.77734375 193.840820312 30.67578125 258.822265625 30.67578125 375.2421875 c 0
 30.67578125 497.982421875 138.268554688 544.809570312 275.353515625 544.809570312 c 0
EndSplineSet
EndChar

StartChar: t
Encoding: 116 116 84
Width: 452
Flags: HW
LayerCount: 2
Fore
SplineSet
25.734375 361.438476562 m 1
 25.734375 536.567382812 l 1
 439.249023438 536.567382812 l 1
 439.249023438 361.438476562 l 1
 25.734375 361.438476562 l 1
113.553710938 668.427734375 m 1
 314.399414062 722 l 1
 314.399414062 181.158203125 l 2
 314.399414062 159.634765625 332.381835938 150.250976562 356.016601562 150.250976562 c 2
 435.087890625 150.250976562 l 1
 445.47265625 1.7529296875 l 1
 401.213867188 -4.9912109375 369.881835938 -7.3642578125 325.112304688 -7.3642578125 c 0
 199.689453125 -7.3642578125 113.553710938 60.5205078125 113.553710938 181.158203125 c 2
 113.553710938 668.427734375 l 1
EndSplineSet
EndChar

StartChar: u
Encoding: 117 117 85
Width: 581
Flags: HW
LayerCount: 2
Fore
SplineSet
354.196289062 536.567382812 m 1
 555.041992188 536.567382812 l 1
 555.041992188 0.876953125 l 1
 354.196289062 0.876953125 l 1
 354.196289062 536.567382812 l 1
42.216796875 536.567382812 m 1
 243.0625 536.567382812 l 1
 243.0625 209.795898438 l 2
 243.0625 170.224609375 261.649414062 141.497070312 298.62890625 141.497070312 c 0
 334.616210938 141.497070312 361.517578125 174.561523438 354.196289062 209.795898438 c 1
 407.857421875 164.768554688 l 1
 408.463867188 69.8798828125 331.7109375 -7.3642578125 236.821289062 -7.3642578125 c 0
 112.5703125 -7.3642578125 42.216796875 80.85546875 42.216796875 209.795898438 c 2
 42.216796875 536.567382812 l 1
EndSplineSet
EndChar

StartChar: v
Encoding: 118 118 86
Width: 597
Flags: HW
LayerCount: 2
Fore
SplineSet
21.61328125 536.567382812 m 1
 222.458984375 536.567382812 l 1
 347.065429688 0.876953125 l 1
 206.473632812 0.876953125 l 1
 21.61328125 536.567382812 l 1
391.333984375 536.567382812 m 1
 592.180664062 536.567382812 l 1
 407.319335938 0.876953125 l 1
 266.728515625 0.876953125 l 1
 391.333984375 536.567382812 l 1
EndSplineSet
EndChar

StartChar: w
Encoding: 119 119 87
Width: 807
Flags: HW
LayerCount: 2
Fore
SplineSet
21.61328125 536.567382812 m 1
 222.458984375 536.567382812 l 1
 273.6171875 161.5859375 l 1
 235.288085938 0.876953125 l 1
 94.697265625 0.876953125 l 1
 72.771484375 161.5859375 l 1
 21.61328125 536.567382812 l 1
154.951171875 0.876953125 m 1
 259.134765625 402.645507812 l 1
 149.509765625 134.799804688 l 1
 313.947265625 536.567382812 l 1
 454.5390625 536.567382812 l 1
 350.35546875 134.799804688 l 1
 459.98046875 402.645507812 l 1
 295.54296875 0.876953125 l 1
 154.951171875 0.876953125 l 1
374.202148438 536.567382812 m 1
 514.793945312 536.567382812 l 1
 679.231445312 134.799804688 l 1
 569.606445312 402.645507812 l 1
 673.790039062 0.876953125 l 1
 533.198242188 0.876953125 l 1
 368.760742188 402.645507812 l 1
 478.385742188 134.799804688 l 1
 374.202148438 536.567382812 l 1
593.453125 0.876953125 m 1
 588.01171875 402.645507812 l 1
 606.282226562 536.567382812 l 1
 807.127929688 536.567382812 l 1
 788.857421875 402.645507812 l 1
 734.044921875 0.876953125 l 1
 593.453125 0.876953125 l 1
EndSplineSet
EndChar

StartChar: x
Encoding: 120 120 88
Width: 554
Flags: HW
LayerCount: 2
Fore
SplineSet
18.2822265625 536.567382812 m 1
 235.717773438 536.567382812 l 1
 386.0625 268.72265625 l 1
 552.997070312 0.876953125 l 1
 335.5625 0.876953125 l 1
 185.216796875 268.72265625 l 1
 18.2822265625 536.567382812 l 1
335.5625 536.567382812 m 1
 552.997070312 536.567382812 l 1
 386.0625 268.72265625 l 1
 235.717773438 0.876953125 l 1
 18.2822265625 0.876953125 l 1
 185.216796875 268.72265625 l 1
 335.5625 536.567382812 l 1
EndSplineSet
EndChar

StartChar: y
Encoding: 121 121 89
Width: 596
Flags: HW
LayerCount: 2
Fore
SplineSet
17.4716796875 536.890625 m 1
 218.071289062 536.890625 l 1
 312.446289062 269.373046875 l 1
 346.640625 1.85546875 l 1
 206.220703125 1.85546875 l 1
 111.846679688 269.373046875 l 1
 17.4716796875 536.890625 l 1
394.970703125 536.890625 m 1
 595.5703125 536.890625 l 1
 501.1953125 269.373046875 l 1
 406.821289062 1.85546875 l 1
 266.401367188 1.85546875 l 1
 300.595703125 269.373046875 l 1
 394.970703125 536.890625 l 1
206.220703125 1.85546875 m 1
 406.821289062 1.85546875 l 1
 337.12890625 -195.696289062 l 1
 136.528320312 -195.696289062 l 1
 206.220703125 1.85546875 l 1
EndSplineSet
EndChar

StartChar: z
Encoding: 122 122 90
Width: 559
Flags: HW
LayerCount: 2
Fore
SplineSet
42.216796875 361.438476562 m 1
 42.216796875 536.567382812 l 1
 532.997070312 536.567382812 l 1
 532.997070312 361.438476562 l 1
 42.216796875 361.438476562 l 1
42.216796875 0.876953125 m 1
 42.216796875 176.006835938 l 1
 532.997070312 176.006835938 l 1
 532.997070312 0.876953125 l 1
 42.216796875 0.876953125 l 1
395.415039062 462.514648438 m 1
 532.997070312 361.438476562 l 1
 179.798828125 74.9306640625 l 1
 42.216796875 176.006835938 l 1
 395.415039062 462.514648438 l 1
EndSplineSet
EndChar

StartChar: braceleft
Encoding: 123 123 91
Width: 357
Flags: HW
LayerCount: 2
Fore
SplineSet
366.002929688 772.958007812 m 1
 366.002929688 606.72265625 l 1
 317.998046875 606.72265625 287.774414062 576.5 287.774414062 528.494140625 c 2
 287.774414062 494.26953125 l 2
 287.774414062 356.849609375 170.8046875 299.676757812 18.900390625 299.676757812 c 1
 18.900390625 416.041015625 l 1
 66.90625 416.041015625 97.1298828125 446.264648438 97.1298828125 494.26953125 c 2
 97.1298828125 528.494140625 l 2
 97.1298828125 683.697265625 205.71484375 772.958007812 366.002929688 772.958007812 c 1
18.900390625 366.169921875 m 1
 170.8046875 366.169921875 287.774414062 308.997070312 287.774414062 171.577148438 c 2
 287.774414062 137.352539062 l 2
 287.774414062 89.34765625 317.998046875 59.1240234375 366.002929688 59.1240234375 c 1
 366.002929688 -107.110351562 l 1
 205.71484375 -107.110351562 97.1298828125 -17.849609375 97.1298828125 137.352539062 c 2
 97.1298828125 171.577148438 l 2
 97.1298828125 219.583007812 66.90625 249.805664062 18.900390625 249.805664062 c 1
 18.900390625 366.169921875 l 1
EndSplineSet
EndChar

StartChar: bar
Encoding: 124 124 92
Width: 367
Flags: HW
LayerCount: 2
Fore
SplineSet
91.20703125 800 m 1
 287.150390625 800 l 1
 287.150390625 -104.529296875 l 1
 91.20703125 -104.529296875 l 1
 91.20703125 800 l 1
EndSplineSet
EndChar

StartChar: braceright
Encoding: 125 125 93
Width: 358
Flags: HW
LayerCount: 2
Fore
SplineSet
24.4609375 607.8203125 m 1
 24.4609375 774.28125 l 1
 184.967773438 774.28125 293.700195312 684.8984375 293.700195312 529.485351562 c 2
 293.700195312 495.213867188 l 2
 293.700195312 447.143554688 323.96484375 416.87890625 372.03515625 416.87890625 c 1
 372.03515625 250.41796875 l 1
 211.528320312 250.41796875 102.795898438 339.799804688 102.795898438 495.213867188 c 2
 102.795898438 529.485351562 l 2
 102.795898438 577.555664062 72.53125 607.8203125 24.4609375 607.8203125 c 1
372.03515625 250.41796875 m 1
 323.96484375 250.41796875 293.700195312 220.153320312 293.700195312 172.083007812 c 2
 293.700195312 137.811523438 l 2
 293.700195312 -17.6025390625 184.967773438 -106.984375 24.4609375 -106.984375 c 1
 24.4609375 59.4765625 l 1
 72.53125 59.4765625 102.795898438 89.7412109375 102.795898438 137.811523438 c 2
 102.795898438 172.083007812 l 2
 102.795898438 309.689453125 219.924804688 366.940429688 372.03515625 366.940429688 c 1
 372.03515625 250.41796875 l 1
EndSplineSet
EndChar

StartChar: asciitilde
Encoding: 126 126 94
Width: 672
Flags: HW
LayerCount: 2
Fore
SplineSet
25.734375 161.5859375 m 1
 25.734375 276.061523438 107.302734375 375.859375 217.58203125 375.859375 c 0
 286.58203125 375.859375 334.791015625 365.927734375 398.172851562 338.655273438 c 1
 292.78125 198.7890625 l 1
 264.953125 200.2265625 245.448242188 200.729492188 217.58203125 200.729492188 c 0
 201.770507812 200.729492188 200.864257812 179.9453125 200.864257812 161.5859375 c 1
 25.734375 161.5859375 l 1
665.219726562 375.859375 m 1
 665.219726562 261.383789062 583.651367188 161.5859375 473.372070312 161.5859375 c 0
 404.372070312 161.5859375 356.163085938 171.517578125 292.78125 198.7890625 c 1
 398.172851562 338.655273438 l 1
 426.001953125 337.21875 445.506835938 336.715820312 473.372070312 336.715820312 c 0
 489.18359375 336.715820312 490.08984375 357.499023438 490.08984375 375.859375 c 1
 665.219726562 375.859375 l 1
EndSplineSet
EndChar
